<?xml version="1.0" encoding="utf-8" standalone="no"?>
<!DOCTYPE svg PUBLIC "-//W3C//DTD SVG 1.1//EN"
  "http://www.w3.org/Graphics/SVG/1.1/DTD/svg11.dtd">
<!-- Created with matplotlib (http://matplotlib.org/) -->
<svg height="360pt" version="1.1" viewBox="0 0 360 360" width="360pt" xmlns="http://www.w3.org/2000/svg" xmlns:xlink="http://www.w3.org/1999/xlink">
 <defs>
  <style type="text/css">
*{stroke-linecap:butt;stroke-linejoin:round;stroke-miterlimit:100000;}
  </style>
 </defs>
 <g id="figure_1">
  <g id="patch_1">
   <path d="M 0 360 
L 360 360 
L 360 0 
L 0 0 
z
" style="fill:#ffffff;"/>
  </g>
  <g id="axes_1">
   <g id="patch_2">
    <path d="M 54 324 
L 342 324 
L 342 18 
L 54 18 
z
" style="fill:#ffffff;"/>
   </g>
   <g id="line2d_1">
    <path clip-path="url(#pdd8a6bfdb7)" d="M 63.963733 306.403322 
L 73.937444 295.861918 
L 83.921155 288.363246 
L 93.914884 283.020605 
L 103.918652 278.848473 
L 113.932479 275.698328 
L 123.956385 273.108625 
L 133.990391 271.082666 
L 144.034517 270.045013 
L 154.088784 269.699785 
L 164.153211 269.354697 
L 174.22782 268.377354 
L 184.312631 268.555394 
L 194.407665 270.007964 
L 204.512943 271.142944 
L 214.628485 273.913766 
L 224.754312 278.059705 
L 234.890445 278.286822 
L 245.036906 278.170678 
L 255.193715 278.591591 
L 263.326627 279.11219 
L 269.430672 280.011973 
L 273.502116 280.836827 
L 275.538462 281.206318 
L 275.538462 281.294757 
L 273.502116 282.001564 
L 269.430672 284.062283 
L 263.326627 287.238221 
L 255.193715 291.455835 
L 245.036906 296.107069 
L 234.890445 300.580273 
L 224.754312 304.510446 
L 214.628485 307.743415 
L 204.512943 310.282177 
L 194.407665 312.440532 
L 184.312631 314.50012 
L 174.22782 316.092708 
L 164.153211 317.233202 
L 154.088784 317.36904 
L 144.034517 318.324329 
L 133.990391 319.09018 
L 123.956385 319.427397 
L 113.932479 319.963858 
L 103.918652 320.418124 
L 93.914884 321.03949 
L 85.919098 321.477061 
L 79.926469 321.724757 
L 75.933386 321.78053 
L 73.937444 322.314088 
L 73.937444 322.752192 
" style="fill:none;stroke:#1b9e77;stroke-linecap:square;"/>
   </g>
   <g id="line2d_2">
    <path clip-path="url(#pdd8a6bfdb7)" d="M 63.963733 302.957388 
L 73.937444 289.001991 
L 83.921155 277.734258 
L 93.914884 268.666991 
L 103.918652 261.029366 
L 113.932479 254.654904 
L 123.956385 249.387062 
L 133.990391 244.710695 
L 144.034517 240.787613 
L 154.088784 237.529866 
L 164.153211 234.387415 
L 174.22782 231.900419 
L 184.312631 230.181177 
L 194.407665 227.896236 
L 204.512943 225.266706 
L 214.628485 224.716696 
L 224.754312 225.692834 
L 234.890445 226.834542 
L 245.036906 228.551857 
L 255.193715 230.726024 
L 263.326627 233.016153 
L 269.430672 233.062713 
L 273.502116 233.116009 
L 275.538462 233.290996 
L 275.538462 240.173064 
L 273.502116 246.012086 
L 269.430672 248.669633 
L 263.326627 252.940555 
L 255.193715 258.649393 
L 245.036906 265.891554 
L 234.890445 273.285031 
L 224.754312 280.282405 
L 214.628485 286.939377 
L 204.512943 292.613049 
L 194.407665 297.667376 
L 184.312631 301.670181 
L 174.22782 304.826057 
L 164.153211 307.542167 
L 154.088784 310.527847 
L 144.034517 312.70738 
L 133.990391 310.886571 
L 123.956385 313.925964 
L 113.932479 315.570795 
L 103.918652 316.60503 
L 93.914884 316.379381 
L 85.919098 318.232445 
L 79.926469 319.565076 
L 75.933386 320.586752 
L 73.937444 321.424815 
L 73.937444 322.217266 
" style="fill:none;stroke:#d95f02;stroke-linecap:square;"/>
   </g>
   <g id="line2d_3">
    <path clip-path="url(#pdd8a6bfdb7)" d="M 63.963733 298.41675 
L 73.937444 281.914308 
L 83.921155 267.295642 
L 93.914884 254.296682 
L 103.918652 242.693519 
L 113.932479 232.336682 
L 123.956385 223.083393 
L 133.990391 214.789841 
L 144.034517 207.094279 
L 154.088784 200.174756 
L 164.153211 194.036259 
L 174.22782 188.492856 
L 184.312631 183.632338 
L 194.407665 178.970355 
L 204.512943 174.707128 
L 214.628485 171.076338 
L 224.754312 167.89877 
L 234.890445 164.096859 
L 245.036906 159.965876 
L 255.193715 156.156142 
L 263.326627 153.806169 
L 269.430672 152.783594 
L 273.502116 151.051104 
L 275.538462 150.057456 
L 275.538462 149.745242 
L 273.502116 150.853001 
L 269.430672 154.163433 
L 263.326627 159.617641 
L 255.193715 167.24612 
L 245.036906 176.959476 
L 234.890445 187.759427 
L 224.754312 198.317766 
L 214.628485 208.754328 
L 204.512943 219.119216 
L 194.407665 229.563757 
L 184.312631 238.864069 
L 174.22782 248.434536 
L 164.153211 257.763704 
L 154.088784 266.120711 
L 144.034517 273.795017 
L 133.990391 280.895007 
L 123.956385 287.499175 
L 113.932479 293.575589 
L 103.918652 298.932625 
L 93.914884 304.09572 
L 85.919098 308.571389 
L 79.926469 312.374261 
L 75.933386 315.714663 
L 73.937444 318.344578 
L 73.937444 319.691884 
" style="fill:none;stroke:#7570b3;stroke-linecap:square;"/>
   </g>
   <g id="line2d_4">
    <path clip-path="url(#pdd8a6bfdb7)" d="M 63.963733 289.935995 
L 73.937444 272.758683 
L 83.921155 255.874966 
L 93.914884 239.825444 
L 103.918652 224.829879 
L 113.932479 210.715779 
L 123.956385 197.437954 
L 133.990391 185.077224 
L 144.034517 173.294802 
L 154.088784 162.264011 
L 164.153211 151.765383 
L 174.22782 142.055223 
L 184.312631 132.913712 
L 194.407665 124.221494 
L 204.512943 116.247997 
L 214.628485 108.559636 
L 224.754312 101.268135 
L 234.890445 94.20538 
L 245.036906 87.852794 
L 255.193715 81.824887 
L 263.326627 76.898212 
L 269.430672 73.671045 
L 273.502116 71.02912 
L 275.538462 69.503625 
L 275.538462 69 
L 273.502116 70.215705 
L 269.430672 73.854831 
L 263.326627 79.915618 
L 255.193715 88.426772 
L 245.036906 99.381217 
L 234.890445 111.552876 
L 224.754312 123.820805 
L 214.628485 136.124619 
L 204.512943 148.5679 
L 194.407665 161.062317 
L 184.312631 173.481247 
L 174.22782 185.642833 
L 164.153211 197.679356 
L 154.088784 209.530003 
L 144.034517 221.170788 
L 133.990391 232.773376 
L 123.956385 244.179276 
L 113.932479 255.422448 
L 103.918652 266.430904 
L 93.914884 276.775921 
L 85.919098 286.251246 
L 79.926469 295.439132 
L 75.933386 303.615158 
L 73.937444 310.383273 
L 73.937444 314.792161 
" style="fill:none;stroke:#e7298a;stroke-linecap:square;"/>
   </g>
   <g id="line2d_5">
    <path clip-path="url(#pdd8a6bfdb7)" d="M 63.971191 309.892575 
L 73.942382 297.935269 
L 83.926099 289.813712 
L 93.922447 285.560161 
L 103.918795 281.30661 
L 113.940096 278.249346 
L 123.961444 275.194347 
L 133.99538 272.548287 
L 144.041987 270.313799 
L 154.088593 268.079311 
L 164.160615 268.64486 
L 174.232644 269.211103 
L 184.317364 270.040993 
L 194.414861 271.136254 
L 204.512357 272.231514 
L 214.635584 273.522556 
L 224.758888 274.814181 
L 234.895083 276.105484 
L 245.044389 277.396461 
L 255.193695 278.687437 
L 262.821807 279.575209 
L 270.448908 280.462819 
L 275.539085 281.044087 
L 278.082837 281.317866 
L 280.626589 281.591645 
L 278.084849 282.588389 
L 275.53563 283.586196 
L 270.452031 285.575718 
L 262.81739 288.563474 
L 255.182749 291.55123 
L 245.043635 295.519313 
L 234.894901 299.491162 
L 224.759185 303.457973 
L 214.636626 307.419694 
L 204.514067 311.381415 
L 194.417411 315.333044 
L 184.32077 319.284667 
L 174.236198 321.839175 
L 164.163824 322.981845 
L 154.09145 324.124516 
L 144.044061 323.960919 
L 133.996687 323.796575 
L 123.96225 323.675848 
L 113.940807 323.598933 
L 103.919364 323.522018 
L 93.923176 323.20238 
L 83.927077 322.881883 
L 73.943029 322.780201 
L 63.971515 322.906088 
L 54 323.031974 
" style="fill:none;stroke:#1b9e77;stroke-dasharray:6.000000,6.000000;stroke-dashoffset:0.0;stroke-width:2.0;"/>
   </g>
   <g id="line2d_6">
    <path clip-path="url(#pdd8a6bfdb7)" d="M 63.971556 307.616194 
L 73.943113 295.532625 
L 83.926946 283.605859 
L 93.923232 271.83814 
L 103.919518 260.070421 
L 113.940948 255.477929 
L 123.96245 250.905821 
L 133.996249 246.793023 
L 144.042431 243.142737 
L 154.088612 239.49245 
L 164.160986 236.592369 
L 174.233367 233.692473 
L 184.318104 231.906924 
L 194.415216 231.237264 
L 204.512327 230.567604 
L 214.635136 231.591153 
L 224.758053 232.621886 
L 234.893764 233.765125 
L 245.042284 235.021013 
L 255.190804 236.276901 
L 262.81914 237.270155 
L 270.445595 238.263213 
L 275.536715 238.925399 
L 278.080576 239.255157 
L 280.624436 239.584915 
L 278.084528 241.28859 
L 275.536471 242.994467 
L 270.447319 246.401738 
L 262.816489 251.510794 
L 255.18566 256.61985 
L 245.041419 263.412023 
L 234.892578 270.207277 
L 224.756746 276.994004 
L 214.634112 283.772081 
L 204.511479 290.550157 
L 194.41429 297.311003 
L 184.317135 304.071826 
L 174.232336 310.724066 
L 164.160048 317.266357 
L 154.08776 323.808648 
L 144.040627 323.948558 
L 133.993571 324.068797 
L 123.959302 324.018241 
L 113.938002 323.794488 
L 103.916701 323.570735 
L 93.920503 323.426778 
L 83.924403 323.283135 
L 73.940845 322.526321 
L 63.969829 321.156309 
L 53.998813 319.786296 
" style="fill:none;stroke:#d95f02;stroke-dasharray:6.000000,6.000000;stroke-dashoffset:0.0;stroke-width:2.0;"/>
   </g>
   <g id="line2d_7">
    <path clip-path="url(#pdd8a6bfdb7)" d="M 63.971302 303.405603 
L 73.942604 291.41168 
L 83.926266 279.402549 
L 93.922367 267.378113 
L 103.918468 255.353676 
L 113.939639 243.299067 
L 123.960885 231.244368 
L 133.994954 219.478808 
L 144.041872 208.003002 
L 154.088791 196.527197 
L 164.160983 191.718389 
L 174.233252 186.930264 
L 184.31809 182.454313 
L 194.415694 178.295423 
L 204.513298 174.136534 
L 214.636255 170.551518 
L 224.759309 166.968708 
L 234.895473 164.053057 
L 245.04477 161.805865 
L 255.194068 159.558672 
L 262.823042 160.233619 
L 270.44748 160.913827 
L 275.542092 161.384685 
L 278.083181 161.644233 
L 280.624269 161.903781 
L 278.089403 164.550194 
L 275.539953 167.203465 
L 270.451433 172.499541 
L 262.819402 180.443043 
L 255.187371 188.386545 
L 245.044891 198.943422 
L 234.895651 209.507337 
L 224.759118 220.057905 
L 214.635385 230.595031 
L 204.511651 241.132157 
L 194.414152 251.642585 
L 184.316655 262.153011 
L 174.231941 272.650283 
L 164.160123 283.134287 
L 154.088305 293.618291 
L 144.041656 304.075954 
L 133.995019 314.533607 
L 123.960925 320.682293 
L 113.939396 322.515435 
L 103.917867 324.348576 
L 93.921507 324.048128 
L 83.925242 323.73955 
L 73.941644 323.46937 
L 63.970822 323.237922 
L 54 323.006474 
" style="fill:none;stroke:#7570b3;stroke-dasharray:6.000000,6.000000;stroke-dashoffset:0.0;stroke-width:2.0;"/>
   </g>
   <g id="line2d_8">
    <path clip-path="url(#pdd8a6bfdb7)" d="M 63.971568 294.715486 
L 73.943135 282.631921 
L 83.926888 270.533077 
L 93.923 258.418734 
L 103.919112 246.304391 
L 113.940526 234.159693 
L 123.96202 222.014898 
L 133.996231 209.854894 
L 144.043301 197.679509 
L 154.090371 185.504125 
L 164.162796 173.298005 
L 174.235275 161.091818 
L 184.320482 148.870154 
L 194.418489 136.632921 
L 204.516496 124.395689 
L 214.64034 112.127661 
L 224.764203 99.859609 
L 234.900932 88.685861 
L 245.050707 78.621766 
L 255.200483 68.557672 
L 262.829186 64.832971 
L 270.452232 61.122498 
L 275.552311 58.667656 
L 278.090063 57.488035 
L 280.627815 56.308415 
L 278.09773 59.382313 
L 275.546766 62.473735 
L 270.458302 68.640185 
L 262.825572 77.889861 
L 255.192842 87.139537 
L 245.050855 99.429515 
L 234.901101 111.728904 
L 224.76479 124.012763 
L 214.642032 136.280966 
L 204.519273 148.549169 
L 194.421404 160.786449 
L 184.323584 173.023669 
L 174.238721 185.245447 
L 164.166912 197.451666 
L 154.095103 209.657886 
L 144.048885 221.833316 
L 134.002714 234.00869 
L 123.968778 246.168811 
L 113.947163 258.31357 
L 103.925549 270.458329 
L 93.929279 282.572684 
L 83.933052 294.686988 
L 73.949461 305.2332 
L 63.978589 314.200974 
L 54.007717 323.168747 
" style="fill:none;stroke:#e7298a;stroke-dasharray:6.000000,6.000000;stroke-dashoffset:0.0;stroke-width:2.0;"/>
   </g>
   <g id="patch_3">
    <path d="M 342 324 
L 342 18 
" style="fill:none;stroke:#000000;stroke-linecap:square;stroke-linejoin:miter;"/>
   </g>
   <g id="patch_4">
    <path d="M 54 324 
L 342 324 
" style="fill:none;stroke:#000000;stroke-linecap:square;stroke-linejoin:miter;"/>
   </g>
   <g id="patch_5">
    <path d="M 54 18 
L 342 18 
" style="fill:none;stroke:#000000;stroke-linecap:square;stroke-linejoin:miter;"/>
   </g>
   <g id="patch_6">
    <path d="M 54 324 
L 54 18 
" style="fill:none;stroke:#000000;stroke-linecap:square;stroke-linejoin:miter;"/>
   </g>
   <g id="matplotlib.axis_1">
    <g id="xtick_1">
     <g id="line2d_9">
      <defs>
       <path d="M 0 0 
L 0 -4 
" id="m0131e98c59" style="stroke:#000000;stroke-width:0.5;"/>
      </defs>
      <g>
       <use style="stroke:#000000;stroke-width:0.5;" x="54.0" xlink:href="#m0131e98c59" y="324.0"/>
      </g>
     </g>
     <g id="line2d_10">
      <defs>
       <path d="M 0 0 
L 0 4 
" id="m4ff330adbf" style="stroke:#000000;stroke-width:0.5;"/>
      </defs>
      <g>
       <use style="stroke:#000000;stroke-width:0.5;" x="54.0" xlink:href="#m4ff330adbf" y="18.0"/>
      </g>
     </g>
     <g id="text_1">
      <!-- 0.0 -->
      <defs>
       <path d="M 31.78125 66.40625 
Q 24.171875 66.40625 20.328125 58.90625 
Q 16.5 51.421875 16.5 36.375 
Q 16.5 21.390625 20.328125 13.890625 
Q 24.171875 6.390625 31.78125 6.390625 
Q 39.453125 6.390625 43.28125 13.890625 
Q 47.125 21.390625 47.125 36.375 
Q 47.125 51.421875 43.28125 58.90625 
Q 39.453125 66.40625 31.78125 66.40625 
M 31.78125 74.21875 
Q 44.046875 74.21875 50.515625 64.515625 
Q 56.984375 54.828125 56.984375 36.375 
Q 56.984375 17.96875 50.515625 8.265625 
Q 44.046875 -1.421875 31.78125 -1.421875 
Q 19.53125 -1.421875 13.0625 8.265625 
Q 6.59375 17.96875 6.59375 36.375 
Q 6.59375 54.828125 13.0625 64.515625 
Q 19.53125 74.21875 31.78125 74.21875 
" id="BitstreamVeraSans-Roman-30"/>
       <path d="M 10.6875 12.40625 
L 21 12.40625 
L 21 0 
L 10.6875 0 
z
" id="BitstreamVeraSans-Roman-2e"/>
      </defs>
      <g transform="translate(44.458125 337.118125)scale(0.12 -0.12)">
       <use xlink:href="#BitstreamVeraSans-Roman-30"/>
       <use x="63.623046875" xlink:href="#BitstreamVeraSans-Roman-2e"/>
       <use x="95.41015625" xlink:href="#BitstreamVeraSans-Roman-30"/>
      </g>
     </g>
    </g>
    <g id="xtick_2">
     <g id="line2d_11">
      <g>
       <use style="stroke:#000000;stroke-width:0.5;" x="103.793750772" xlink:href="#m0131e98c59" y="324.0"/>
      </g>
     </g>
     <g id="line2d_12">
      <g>
       <use style="stroke:#000000;stroke-width:0.5;" x="103.793750772" xlink:href="#m4ff330adbf" y="18.0"/>
      </g>
     </g>
     <g id="text_2">
      <!-- 0.5 -->
      <defs>
       <path d="M 10.796875 72.90625 
L 49.515625 72.90625 
L 49.515625 64.59375 
L 19.828125 64.59375 
L 19.828125 46.734375 
Q 21.96875 47.46875 24.109375 47.828125 
Q 26.265625 48.1875 28.421875 48.1875 
Q 40.625 48.1875 47.75 41.5 
Q 54.890625 34.8125 54.890625 23.390625 
Q 54.890625 11.625 47.5625 5.09375 
Q 40.234375 -1.421875 26.90625 -1.421875 
Q 22.3125 -1.421875 17.546875 -0.640625 
Q 12.796875 0.140625 7.71875 1.703125 
L 7.71875 11.625 
Q 12.109375 9.234375 16.796875 8.0625 
Q 21.484375 6.890625 26.703125 6.890625 
Q 35.15625 6.890625 40.078125 11.328125 
Q 45.015625 15.765625 45.015625 23.390625 
Q 45.015625 31 40.078125 35.4375 
Q 35.15625 39.890625 26.703125 39.890625 
Q 22.75 39.890625 18.8125 39.015625 
Q 14.890625 38.140625 10.796875 36.28125 
z
" id="BitstreamVeraSans-Roman-35"/>
      </defs>
      <g transform="translate(94.2518757719 337.118125)scale(0.12 -0.12)">
       <use xlink:href="#BitstreamVeraSans-Roman-30"/>
       <use x="63.623046875" xlink:href="#BitstreamVeraSans-Roman-2e"/>
       <use x="95.41015625" xlink:href="#BitstreamVeraSans-Roman-35"/>
      </g>
     </g>
    </g>
    <g id="xtick_3">
     <g id="line2d_13">
      <g>
       <use style="stroke:#000000;stroke-width:0.5;" x="153.587501544" xlink:href="#m0131e98c59" y="324.0"/>
      </g>
     </g>
     <g id="line2d_14">
      <g>
       <use style="stroke:#000000;stroke-width:0.5;" x="153.587501544" xlink:href="#m4ff330adbf" y="18.0"/>
      </g>
     </g>
     <g id="text_3">
      <!-- 1.0 -->
      <defs>
       <path d="M 12.40625 8.296875 
L 28.515625 8.296875 
L 28.515625 63.921875 
L 10.984375 60.40625 
L 10.984375 69.390625 
L 28.421875 72.90625 
L 38.28125 72.90625 
L 38.28125 8.296875 
L 54.390625 8.296875 
L 54.390625 0 
L 12.40625 0 
z
" id="BitstreamVeraSans-Roman-31"/>
      </defs>
      <g transform="translate(144.045626544 337.118125)scale(0.12 -0.12)">
       <use xlink:href="#BitstreamVeraSans-Roman-31"/>
       <use x="63.623046875" xlink:href="#BitstreamVeraSans-Roman-2e"/>
       <use x="95.41015625" xlink:href="#BitstreamVeraSans-Roman-30"/>
      </g>
     </g>
    </g>
    <g id="xtick_4">
     <g id="line2d_15">
      <g>
       <use style="stroke:#000000;stroke-width:0.5;" x="203.381252316" xlink:href="#m0131e98c59" y="324.0"/>
      </g>
     </g>
     <g id="line2d_16">
      <g>
       <use style="stroke:#000000;stroke-width:0.5;" x="203.381252316" xlink:href="#m4ff330adbf" y="18.0"/>
      </g>
     </g>
     <g id="text_4">
      <!-- 1.5 -->
      <g transform="translate(193.839377316 337.118125)scale(0.12 -0.12)">
       <use xlink:href="#BitstreamVeraSans-Roman-31"/>
       <use x="63.623046875" xlink:href="#BitstreamVeraSans-Roman-2e"/>
       <use x="95.41015625" xlink:href="#BitstreamVeraSans-Roman-35"/>
      </g>
     </g>
    </g>
    <g id="xtick_5">
     <g id="line2d_17">
      <g>
       <use style="stroke:#000000;stroke-width:0.5;" x="253.175003088" xlink:href="#m0131e98c59" y="324.0"/>
      </g>
     </g>
     <g id="line2d_18">
      <g>
       <use style="stroke:#000000;stroke-width:0.5;" x="253.175003088" xlink:href="#m4ff330adbf" y="18.0"/>
      </g>
     </g>
     <g id="text_5">
      <!-- 2.0 -->
      <defs>
       <path d="M 19.1875 8.296875 
L 53.609375 8.296875 
L 53.609375 0 
L 7.328125 0 
L 7.328125 8.296875 
Q 12.9375 14.109375 22.625 23.890625 
Q 32.328125 33.6875 34.8125 36.53125 
Q 39.546875 41.84375 41.421875 45.53125 
Q 43.3125 49.21875 43.3125 52.78125 
Q 43.3125 58.59375 39.234375 62.25 
Q 35.15625 65.921875 28.609375 65.921875 
Q 23.96875 65.921875 18.8125 64.3125 
Q 13.671875 62.703125 7.8125 59.421875 
L 7.8125 69.390625 
Q 13.765625 71.78125 18.9375 73 
Q 24.125 74.21875 28.421875 74.21875 
Q 39.75 74.21875 46.484375 68.546875 
Q 53.21875 62.890625 53.21875 53.421875 
Q 53.21875 48.921875 51.53125 44.890625 
Q 49.859375 40.875 45.40625 35.40625 
Q 44.1875 33.984375 37.640625 27.21875 
Q 31.109375 20.453125 19.1875 8.296875 
" id="BitstreamVeraSans-Roman-32"/>
      </defs>
      <g transform="translate(243.633128088 337.118125)scale(0.12 -0.12)">
       <use xlink:href="#BitstreamVeraSans-Roman-32"/>
       <use x="63.623046875" xlink:href="#BitstreamVeraSans-Roman-2e"/>
       <use x="95.41015625" xlink:href="#BitstreamVeraSans-Roman-30"/>
      </g>
     </g>
    </g>
    <g id="xtick_6">
     <g id="line2d_19">
      <g>
       <use style="stroke:#000000;stroke-width:0.5;" x="302.96875386" xlink:href="#m0131e98c59" y="324.0"/>
      </g>
     </g>
     <g id="line2d_20">
      <g>
       <use style="stroke:#000000;stroke-width:0.5;" x="302.96875386" xlink:href="#m4ff330adbf" y="18.0"/>
      </g>
     </g>
     <g id="text_6">
      <!-- 2.5 -->
      <g transform="translate(293.42687886 337.118125)scale(0.12 -0.12)">
       <use xlink:href="#BitstreamVeraSans-Roman-32"/>
       <use x="63.623046875" xlink:href="#BitstreamVeraSans-Roman-2e"/>
       <use x="95.41015625" xlink:href="#BitstreamVeraSans-Roman-35"/>
      </g>
     </g>
    </g>
    <g id="text_7">
     <!-- Axial Logarithmic Strain (%) -->
     <defs>
      <path d="M 54.890625 54.6875 
L 35.109375 28.078125 
L 55.90625 0 
L 45.3125 0 
L 29.390625 21.484375 
L 13.484375 0 
L 2.875 0 
L 24.125 28.609375 
L 4.6875 54.6875 
L 15.28125 54.6875 
L 29.78125 35.203125 
L 44.28125 54.6875 
z
" id="BitstreamVeraSans-Roman-78"/>
      <path d="M 54.890625 33.015625 
L 54.890625 0 
L 45.90625 0 
L 45.90625 32.71875 
Q 45.90625 40.484375 42.875 44.328125 
Q 39.84375 48.1875 33.796875 48.1875 
Q 26.515625 48.1875 22.3125 43.546875 
Q 18.109375 38.921875 18.109375 30.90625 
L 18.109375 0 
L 9.078125 0 
L 9.078125 54.6875 
L 18.109375 54.6875 
L 18.109375 46.1875 
Q 21.34375 51.125 25.703125 53.5625 
Q 30.078125 56 35.796875 56 
Q 45.21875 56 50.046875 50.171875 
Q 54.890625 44.34375 54.890625 33.015625 
" id="BitstreamVeraSans-Roman-6e"/>
      <path id="BitstreamVeraSans-Roman-20"/>
      <path d="M 53.515625 70.515625 
L 53.515625 60.890625 
Q 47.90625 63.578125 42.921875 64.890625 
Q 37.9375 66.21875 33.296875 66.21875 
Q 25.25 66.21875 20.875 63.09375 
Q 16.5 59.96875 16.5 54.203125 
Q 16.5 49.359375 19.40625 46.890625 
Q 22.3125 44.4375 30.421875 42.921875 
L 36.375 41.703125 
Q 47.40625 39.59375 52.65625 34.296875 
Q 57.90625 29 57.90625 20.125 
Q 57.90625 9.515625 50.796875 4.046875 
Q 43.703125 -1.421875 29.984375 -1.421875 
Q 24.8125 -1.421875 18.96875 -0.25 
Q 13.140625 0.921875 6.890625 3.21875 
L 6.890625 13.375 
Q 12.890625 10.015625 18.65625 8.296875 
Q 24.421875 6.59375 29.984375 6.59375 
Q 38.421875 6.59375 43.015625 9.90625 
Q 47.609375 13.234375 47.609375 19.390625 
Q 47.609375 24.75 44.3125 27.78125 
Q 41.015625 30.8125 33.5 32.328125 
L 27.484375 33.5 
Q 16.453125 35.6875 11.515625 40.375 
Q 6.59375 45.0625 6.59375 53.421875 
Q 6.59375 63.09375 13.40625 68.65625 
Q 20.21875 74.21875 32.171875 74.21875 
Q 37.3125 74.21875 42.625 73.28125 
Q 47.953125 72.359375 53.515625 70.515625 
" id="BitstreamVeraSans-Roman-53"/>
      <path d="M 34.28125 27.484375 
Q 23.390625 27.484375 19.1875 25 
Q 14.984375 22.515625 14.984375 16.5 
Q 14.984375 11.71875 18.140625 8.90625 
Q 21.296875 6.109375 26.703125 6.109375 
Q 34.1875 6.109375 38.703125 11.40625 
Q 43.21875 16.703125 43.21875 25.484375 
L 43.21875 27.484375 
z
M 52.203125 31.203125 
L 52.203125 0 
L 43.21875 0 
L 43.21875 8.296875 
Q 40.140625 3.328125 35.546875 0.953125 
Q 30.953125 -1.421875 24.3125 -1.421875 
Q 15.921875 -1.421875 10.953125 3.296875 
Q 6 8.015625 6 15.921875 
Q 6 25.140625 12.171875 29.828125 
Q 18.359375 34.515625 30.609375 34.515625 
L 43.21875 34.515625 
L 43.21875 35.40625 
Q 43.21875 41.609375 39.140625 45 
Q 35.0625 48.390625 27.6875 48.390625 
Q 23 48.390625 18.546875 47.265625 
Q 14.109375 46.140625 10.015625 43.890625 
L 10.015625 52.203125 
Q 14.9375 54.109375 19.578125 55.046875 
Q 24.21875 56 28.609375 56 
Q 40.484375 56 46.34375 49.84375 
Q 52.203125 43.703125 52.203125 31.203125 
" id="BitstreamVeraSans-Roman-61"/>
      <path d="M 41.109375 46.296875 
Q 39.59375 47.171875 37.8125 47.578125 
Q 36.03125 48 33.890625 48 
Q 26.265625 48 22.1875 43.046875 
Q 18.109375 38.09375 18.109375 28.8125 
L 18.109375 0 
L 9.078125 0 
L 9.078125 54.6875 
L 18.109375 54.6875 
L 18.109375 46.1875 
Q 20.953125 51.171875 25.484375 53.578125 
Q 30.03125 56 36.53125 56 
Q 37.453125 56 38.578125 55.875 
Q 39.703125 55.765625 41.0625 55.515625 
z
" id="BitstreamVeraSans-Roman-72"/>
      <path d="M 8.015625 75.875 
L 15.828125 75.875 
Q 23.140625 64.359375 26.78125 53.3125 
Q 30.421875 42.28125 30.421875 31.390625 
Q 30.421875 20.453125 26.78125 9.375 
Q 23.140625 -1.703125 15.828125 -13.1875 
L 8.015625 -13.1875 
Q 14.5 -2 17.703125 9.0625 
Q 20.90625 20.125 20.90625 31.390625 
Q 20.90625 42.671875 17.703125 53.65625 
Q 14.5 64.65625 8.015625 75.875 
" id="BitstreamVeraSans-Roman-29"/>
      <path d="M 9.421875 54.6875 
L 18.40625 54.6875 
L 18.40625 0 
L 9.421875 0 
z
M 9.421875 75.984375 
L 18.40625 75.984375 
L 18.40625 64.59375 
L 9.421875 64.59375 
z
" id="BitstreamVeraSans-Roman-69"/>
      <path d="M 18.3125 70.21875 
L 18.3125 54.6875 
L 36.8125 54.6875 
L 36.8125 47.703125 
L 18.3125 47.703125 
L 18.3125 18.015625 
Q 18.3125 11.328125 20.140625 9.421875 
Q 21.96875 7.515625 27.59375 7.515625 
L 36.8125 7.515625 
L 36.8125 0 
L 27.59375 0 
Q 17.1875 0 13.234375 3.875 
Q 9.28125 7.765625 9.28125 18.015625 
L 9.28125 47.703125 
L 2.6875 47.703125 
L 2.6875 54.6875 
L 9.28125 54.6875 
L 9.28125 70.21875 
z
" id="BitstreamVeraSans-Roman-74"/>
      <path d="M 48.78125 52.59375 
L 48.78125 44.1875 
Q 44.96875 46.296875 41.140625 47.34375 
Q 37.3125 48.390625 33.40625 48.390625 
Q 24.65625 48.390625 19.8125 42.84375 
Q 14.984375 37.3125 14.984375 27.296875 
Q 14.984375 17.28125 19.8125 11.734375 
Q 24.65625 6.203125 33.40625 6.203125 
Q 37.3125 6.203125 41.140625 7.25 
Q 44.96875 8.296875 48.78125 10.40625 
L 48.78125 2.09375 
Q 45.015625 0.34375 40.984375 -0.53125 
Q 36.96875 -1.421875 32.421875 -1.421875 
Q 20.0625 -1.421875 12.78125 6.34375 
Q 5.515625 14.109375 5.515625 27.296875 
Q 5.515625 40.671875 12.859375 48.328125 
Q 20.21875 56 33.015625 56 
Q 37.15625 56 41.109375 55.140625 
Q 45.0625 54.296875 48.78125 52.59375 
" id="BitstreamVeraSans-Roman-63"/>
      <path d="M 9.421875 75.984375 
L 18.40625 75.984375 
L 18.40625 0 
L 9.421875 0 
z
" id="BitstreamVeraSans-Roman-6c"/>
      <path d="M 31 75.875 
Q 24.46875 64.65625 21.28125 53.65625 
Q 18.109375 42.671875 18.109375 31.390625 
Q 18.109375 20.125 21.3125 9.0625 
Q 24.515625 -2 31 -13.1875 
L 23.1875 -13.1875 
Q 15.875 -1.703125 12.234375 9.375 
Q 8.59375 20.453125 8.59375 31.390625 
Q 8.59375 42.28125 12.203125 53.3125 
Q 15.828125 64.359375 23.1875 75.875 
z
" id="BitstreamVeraSans-Roman-28"/>
      <path d="M 34.1875 63.1875 
L 20.796875 26.90625 
L 47.609375 26.90625 
z
M 28.609375 72.90625 
L 39.796875 72.90625 
L 67.578125 0 
L 57.328125 0 
L 50.6875 18.703125 
L 17.828125 18.703125 
L 11.1875 0 
L 0.78125 0 
z
" id="BitstreamVeraSans-Roman-41"/>
      <path d="M 54.890625 33.015625 
L 54.890625 0 
L 45.90625 0 
L 45.90625 32.71875 
Q 45.90625 40.484375 42.875 44.328125 
Q 39.84375 48.1875 33.796875 48.1875 
Q 26.515625 48.1875 22.3125 43.546875 
Q 18.109375 38.921875 18.109375 30.90625 
L 18.109375 0 
L 9.078125 0 
L 9.078125 75.984375 
L 18.109375 75.984375 
L 18.109375 46.1875 
Q 21.34375 51.125 25.703125 53.5625 
Q 30.078125 56 35.796875 56 
Q 45.21875 56 50.046875 50.171875 
Q 54.890625 44.34375 54.890625 33.015625 
" id="BitstreamVeraSans-Roman-68"/>
      <path d="M 45.40625 27.984375 
Q 45.40625 37.75 41.375 43.109375 
Q 37.359375 48.484375 30.078125 48.484375 
Q 22.859375 48.484375 18.828125 43.109375 
Q 14.796875 37.75 14.796875 27.984375 
Q 14.796875 18.265625 18.828125 12.890625 
Q 22.859375 7.515625 30.078125 7.515625 
Q 37.359375 7.515625 41.375 12.890625 
Q 45.40625 18.265625 45.40625 27.984375 
M 54.390625 6.78125 
Q 54.390625 -7.171875 48.1875 -13.984375 
Q 42 -20.796875 29.203125 -20.796875 
Q 24.46875 -20.796875 20.265625 -20.09375 
Q 16.0625 -19.390625 12.109375 -17.921875 
L 12.109375 -9.1875 
Q 16.0625 -11.328125 19.921875 -12.34375 
Q 23.78125 -13.375 27.78125 -13.375 
Q 36.625 -13.375 41.015625 -8.765625 
Q 45.40625 -4.15625 45.40625 5.171875 
L 45.40625 9.625 
Q 42.625 4.78125 38.28125 2.390625 
Q 33.9375 0 27.875 0 
Q 17.828125 0 11.671875 7.65625 
Q 5.515625 15.328125 5.515625 27.984375 
Q 5.515625 40.671875 11.671875 48.328125 
Q 17.828125 56 27.875 56 
Q 33.9375 56 38.28125 53.609375 
Q 42.625 51.21875 45.40625 46.390625 
L 45.40625 54.6875 
L 54.390625 54.6875 
z
" id="BitstreamVeraSans-Roman-67"/>
      <path d="M 9.8125 72.90625 
L 19.671875 72.90625 
L 19.671875 8.296875 
L 55.171875 8.296875 
L 55.171875 0 
L 9.8125 0 
z
" id="BitstreamVeraSans-Roman-4c"/>
      <path d="M 30.609375 48.390625 
Q 23.390625 48.390625 19.1875 42.75 
Q 14.984375 37.109375 14.984375 27.296875 
Q 14.984375 17.484375 19.15625 11.84375 
Q 23.34375 6.203125 30.609375 6.203125 
Q 37.796875 6.203125 41.984375 11.859375 
Q 46.1875 17.53125 46.1875 27.296875 
Q 46.1875 37.015625 41.984375 42.703125 
Q 37.796875 48.390625 30.609375 48.390625 
M 30.609375 56 
Q 42.328125 56 49.015625 48.375 
Q 55.71875 40.765625 55.71875 27.296875 
Q 55.71875 13.875 49.015625 6.21875 
Q 42.328125 -1.421875 30.609375 -1.421875 
Q 18.84375 -1.421875 12.171875 6.21875 
Q 5.515625 13.875 5.515625 27.296875 
Q 5.515625 40.765625 12.171875 48.375 
Q 18.84375 56 30.609375 56 
" id="BitstreamVeraSans-Roman-6f"/>
      <path d="M 52 44.1875 
Q 55.375 50.25 60.0625 53.125 
Q 64.75 56 71.09375 56 
Q 79.640625 56 84.28125 50.015625 
Q 88.921875 44.046875 88.921875 33.015625 
L 88.921875 0 
L 79.890625 0 
L 79.890625 32.71875 
Q 79.890625 40.578125 77.09375 44.375 
Q 74.3125 48.1875 68.609375 48.1875 
Q 61.625 48.1875 57.5625 43.546875 
Q 53.515625 38.921875 53.515625 30.90625 
L 53.515625 0 
L 44.484375 0 
L 44.484375 32.71875 
Q 44.484375 40.625 41.703125 44.40625 
Q 38.921875 48.1875 33.109375 48.1875 
Q 26.21875 48.1875 22.15625 43.53125 
Q 18.109375 38.875 18.109375 30.90625 
L 18.109375 0 
L 9.078125 0 
L 9.078125 54.6875 
L 18.109375 54.6875 
L 18.109375 46.1875 
Q 21.1875 51.21875 25.484375 53.609375 
Q 29.78125 56 35.6875 56 
Q 41.65625 56 45.828125 52.96875 
Q 50 49.953125 52 44.1875 
" id="BitstreamVeraSans-Roman-6d"/>
      <path d="M 72.703125 32.078125 
Q 68.453125 32.078125 66.03125 28.46875 
Q 63.625 24.859375 63.625 18.40625 
Q 63.625 12.0625 66.03125 8.421875 
Q 68.453125 4.78125 72.703125 4.78125 
Q 76.859375 4.78125 79.265625 8.421875 
Q 81.6875 12.0625 81.6875 18.40625 
Q 81.6875 24.8125 79.265625 28.4375 
Q 76.859375 32.078125 72.703125 32.078125 
M 72.703125 38.28125 
Q 80.421875 38.28125 84.953125 32.90625 
Q 89.5 27.546875 89.5 18.40625 
Q 89.5 9.28125 84.9375 3.921875 
Q 80.375 -1.421875 72.703125 -1.421875 
Q 64.890625 -1.421875 60.34375 3.921875 
Q 55.8125 9.28125 55.8125 18.40625 
Q 55.8125 27.59375 60.375 32.9375 
Q 64.9375 38.28125 72.703125 38.28125 
M 22.3125 68.015625 
Q 18.109375 68.015625 15.6875 64.375 
Q 13.28125 60.75 13.28125 54.390625 
Q 13.28125 47.953125 15.671875 44.328125 
Q 18.0625 40.71875 22.3125 40.71875 
Q 26.5625 40.71875 28.96875 44.328125 
Q 31.390625 47.953125 31.390625 54.390625 
Q 31.390625 60.6875 28.953125 64.34375 
Q 26.515625 68.015625 22.3125 68.015625 
M 66.40625 74.21875 
L 74.21875 74.21875 
L 28.609375 -1.421875 
L 20.796875 -1.421875 
z
M 22.3125 74.21875 
Q 30.03125 74.21875 34.609375 68.875 
Q 39.203125 63.53125 39.203125 54.390625 
Q 39.203125 45.171875 34.640625 39.84375 
Q 30.078125 34.515625 22.3125 34.515625 
Q 14.546875 34.515625 10.03125 39.859375 
Q 5.515625 45.21875 5.515625 54.390625 
Q 5.515625 63.484375 10.046875 68.84375 
Q 14.59375 74.21875 22.3125 74.21875 
" id="BitstreamVeraSans-Roman-25"/>
     </defs>
     <g transform="translate(113.8584375 353.731875)scale(0.12 -0.12)">
      <use xlink:href="#BitstreamVeraSans-Roman-41"/>
      <use x="68.408203125" xlink:href="#BitstreamVeraSans-Roman-78"/>
      <use x="127.587890625" xlink:href="#BitstreamVeraSans-Roman-69"/>
      <use x="155.37109375" xlink:href="#BitstreamVeraSans-Roman-61"/>
      <use x="216.650390625" xlink:href="#BitstreamVeraSans-Roman-6c"/>
      <use x="244.43359375" xlink:href="#BitstreamVeraSans-Roman-20"/>
      <use x="276.220703125" xlink:href="#BitstreamVeraSans-Roman-4c"/>
      <use x="331.91796875" xlink:href="#BitstreamVeraSans-Roman-6f"/>
      <use x="393.099609375" xlink:href="#BitstreamVeraSans-Roman-67"/>
      <use x="456.576171875" xlink:href="#BitstreamVeraSans-Roman-61"/>
      <use x="517.85546875" xlink:href="#BitstreamVeraSans-Roman-72"/>
      <use x="558.96875" xlink:href="#BitstreamVeraSans-Roman-69"/>
      <use x="586.751953125" xlink:href="#BitstreamVeraSans-Roman-74"/>
      <use x="625.9609375" xlink:href="#BitstreamVeraSans-Roman-68"/>
      <use x="689.33984375" xlink:href="#BitstreamVeraSans-Roman-6d"/>
      <use x="786.751953125" xlink:href="#BitstreamVeraSans-Roman-69"/>
      <use x="814.53515625" xlink:href="#BitstreamVeraSans-Roman-63"/>
      <use x="869.515625" xlink:href="#BitstreamVeraSans-Roman-20"/>
      <use x="901.302734375" xlink:href="#BitstreamVeraSans-Roman-53"/>
      <use x="964.779296875" xlink:href="#BitstreamVeraSans-Roman-74"/>
      <use x="1003.98828125" xlink:href="#BitstreamVeraSans-Roman-72"/>
      <use x="1045.1015625" xlink:href="#BitstreamVeraSans-Roman-61"/>
      <use x="1106.380859375" xlink:href="#BitstreamVeraSans-Roman-69"/>
      <use x="1134.1640625" xlink:href="#BitstreamVeraSans-Roman-6e"/>
      <use x="1197.54296875" xlink:href="#BitstreamVeraSans-Roman-20"/>
      <use x="1229.330078125" xlink:href="#BitstreamVeraSans-Roman-28"/>
      <use x="1268.34375" xlink:href="#BitstreamVeraSans-Roman-25"/>
      <use x="1363.36328125" xlink:href="#BitstreamVeraSans-Roman-29"/>
     </g>
    </g>
   </g>
   <g id="matplotlib.axis_2">
    <g id="ytick_1">
     <g id="line2d_21">
      <defs>
       <path d="M 0 0 
L 4 0 
" id="m3851ad8155" style="stroke:#000000;stroke-width:0.5;"/>
      </defs>
      <g>
       <use style="stroke:#000000;stroke-width:0.5;" x="54.0" xlink:href="#m3851ad8155" y="324.0"/>
      </g>
     </g>
     <g id="line2d_22">
      <defs>
       <path d="M 0 0 
L -4 0 
" id="m142c3c78da" style="stroke:#000000;stroke-width:0.5;"/>
      </defs>
      <g>
       <use style="stroke:#000000;stroke-width:0.5;" x="342.0" xlink:href="#m142c3c78da" y="324.0"/>
      </g>
     </g>
     <g id="text_8">
      <!-- 0 -->
      <g transform="translate(42.365 327.31125)scale(0.12 -0.12)">
       <use xlink:href="#BitstreamVeraSans-Roman-30"/>
      </g>
     </g>
    </g>
    <g id="ytick_2">
     <g id="line2d_23">
      <g>
       <use style="stroke:#000000;stroke-width:0.5;" x="54.0" xlink:href="#m3851ad8155" y="280.997624813"/>
      </g>
     </g>
     <g id="line2d_24">
      <g>
       <use style="stroke:#000000;stroke-width:0.5;" x="342.0" xlink:href="#m142c3c78da" y="280.997624813"/>
      </g>
     </g>
     <g id="text_9">
      <!-- 5 -->
      <g transform="translate(42.365 284.308874813)scale(0.12 -0.12)">
       <use xlink:href="#BitstreamVeraSans-Roman-35"/>
      </g>
     </g>
    </g>
    <g id="ytick_3">
     <g id="line2d_25">
      <g>
       <use style="stroke:#000000;stroke-width:0.5;" x="54.0" xlink:href="#m3851ad8155" y="237.995249626"/>
      </g>
     </g>
     <g id="line2d_26">
      <g>
       <use style="stroke:#000000;stroke-width:0.5;" x="342.0" xlink:href="#m142c3c78da" y="237.995249626"/>
      </g>
     </g>
     <g id="text_10">
      <!-- 10 -->
      <g transform="translate(34.73 241.306499626)scale(0.12 -0.12)">
       <use xlink:href="#BitstreamVeraSans-Roman-31"/>
       <use x="63.623046875" xlink:href="#BitstreamVeraSans-Roman-30"/>
      </g>
     </g>
    </g>
    <g id="ytick_4">
     <g id="line2d_27">
      <g>
       <use style="stroke:#000000;stroke-width:0.5;" x="54.0" xlink:href="#m3851ad8155" y="194.992874439"/>
      </g>
     </g>
     <g id="line2d_28">
      <g>
       <use style="stroke:#000000;stroke-width:0.5;" x="342.0" xlink:href="#m142c3c78da" y="194.992874439"/>
      </g>
     </g>
     <g id="text_11">
      <!-- 15 -->
      <g transform="translate(34.73 198.304124439)scale(0.12 -0.12)">
       <use xlink:href="#BitstreamVeraSans-Roman-31"/>
       <use x="63.623046875" xlink:href="#BitstreamVeraSans-Roman-35"/>
      </g>
     </g>
    </g>
    <g id="ytick_5">
     <g id="line2d_29">
      <g>
       <use style="stroke:#000000;stroke-width:0.5;" x="54.0" xlink:href="#m3851ad8155" y="151.990499252"/>
      </g>
     </g>
     <g id="line2d_30">
      <g>
       <use style="stroke:#000000;stroke-width:0.5;" x="342.0" xlink:href="#m142c3c78da" y="151.990499252"/>
      </g>
     </g>
     <g id="text_12">
      <!-- 20 -->
      <g transform="translate(34.73 155.301749252)scale(0.12 -0.12)">
       <use xlink:href="#BitstreamVeraSans-Roman-32"/>
       <use x="63.623046875" xlink:href="#BitstreamVeraSans-Roman-30"/>
      </g>
     </g>
    </g>
    <g id="ytick_6">
     <g id="line2d_31">
      <g>
       <use style="stroke:#000000;stroke-width:0.5;" x="54.0" xlink:href="#m3851ad8155" y="108.988124064"/>
      </g>
     </g>
     <g id="line2d_32">
      <g>
       <use style="stroke:#000000;stroke-width:0.5;" x="342.0" xlink:href="#m142c3c78da" y="108.988124064"/>
      </g>
     </g>
     <g id="text_13">
      <!-- 25 -->
      <g transform="translate(34.73 112.299374064)scale(0.12 -0.12)">
       <use xlink:href="#BitstreamVeraSans-Roman-32"/>
       <use x="63.623046875" xlink:href="#BitstreamVeraSans-Roman-35"/>
      </g>
     </g>
    </g>
    <g id="ytick_7">
     <g id="line2d_33">
      <g>
       <use style="stroke:#000000;stroke-width:0.5;" x="54.0" xlink:href="#m3851ad8155" y="65.9857488773"/>
      </g>
     </g>
     <g id="line2d_34">
      <g>
       <use style="stroke:#000000;stroke-width:0.5;" x="342.0" xlink:href="#m142c3c78da" y="65.9857488773"/>
      </g>
     </g>
     <g id="text_14">
      <!-- 30 -->
      <defs>
       <path d="M 40.578125 39.3125 
Q 47.65625 37.796875 51.625 33 
Q 55.609375 28.21875 55.609375 21.1875 
Q 55.609375 10.40625 48.1875 4.484375 
Q 40.765625 -1.421875 27.09375 -1.421875 
Q 22.515625 -1.421875 17.65625 -0.515625 
Q 12.796875 0.390625 7.625 2.203125 
L 7.625 11.71875 
Q 11.71875 9.328125 16.59375 8.109375 
Q 21.484375 6.890625 26.8125 6.890625 
Q 36.078125 6.890625 40.9375 10.546875 
Q 45.796875 14.203125 45.796875 21.1875 
Q 45.796875 27.640625 41.28125 31.265625 
Q 36.765625 34.90625 28.71875 34.90625 
L 20.21875 34.90625 
L 20.21875 43.015625 
L 29.109375 43.015625 
Q 36.375 43.015625 40.234375 45.921875 
Q 44.09375 48.828125 44.09375 54.296875 
Q 44.09375 59.90625 40.109375 62.90625 
Q 36.140625 65.921875 28.71875 65.921875 
Q 24.65625 65.921875 20.015625 65.03125 
Q 15.375 64.15625 9.8125 62.3125 
L 9.8125 71.09375 
Q 15.4375 72.65625 20.34375 73.4375 
Q 25.25 74.21875 29.59375 74.21875 
Q 40.828125 74.21875 47.359375 69.109375 
Q 53.90625 64.015625 53.90625 55.328125 
Q 53.90625 49.265625 50.4375 45.09375 
Q 46.96875 40.921875 40.578125 39.3125 
" id="BitstreamVeraSans-Roman-33"/>
      </defs>
      <g transform="translate(34.73 69.2969988773)scale(0.12 -0.12)">
       <use xlink:href="#BitstreamVeraSans-Roman-33"/>
       <use x="63.623046875" xlink:href="#BitstreamVeraSans-Roman-30"/>
      </g>
     </g>
    </g>
    <g id="ytick_8">
     <g id="line2d_35">
      <g>
       <use style="stroke:#000000;stroke-width:0.5;" x="54.0" xlink:href="#m3851ad8155" y="22.9833736902"/>
      </g>
     </g>
     <g id="line2d_36">
      <g>
       <use style="stroke:#000000;stroke-width:0.5;" x="342.0" xlink:href="#m142c3c78da" y="22.9833736902"/>
      </g>
     </g>
     <g id="text_15">
      <!-- 35 -->
      <g transform="translate(34.73 26.2946236902)scale(0.12 -0.12)">
       <use xlink:href="#BitstreamVeraSans-Roman-33"/>
       <use x="63.623046875" xlink:href="#BitstreamVeraSans-Roman-35"/>
      </g>
     </g>
    </g>
    <g id="text_16">
     <!-- Axial Cauchy Stress (MPa) -->
     <defs>
      <path d="M 9.8125 72.90625 
L 24.515625 72.90625 
L 43.109375 23.296875 
L 61.8125 72.90625 
L 76.515625 72.90625 
L 76.515625 0 
L 66.890625 0 
L 66.890625 64.015625 
L 48.09375 14.015625 
L 38.1875 14.015625 
L 19.390625 64.015625 
L 19.390625 0 
L 9.8125 0 
z
" id="BitstreamVeraSans-Roman-4d"/>
      <path d="M 8.5 21.578125 
L 8.5 54.6875 
L 17.484375 54.6875 
L 17.484375 21.921875 
Q 17.484375 14.15625 20.5 10.265625 
Q 23.53125 6.390625 29.59375 6.390625 
Q 36.859375 6.390625 41.078125 11.03125 
Q 45.3125 15.671875 45.3125 23.6875 
L 45.3125 54.6875 
L 54.296875 54.6875 
L 54.296875 0 
L 45.3125 0 
L 45.3125 8.40625 
Q 42.046875 3.421875 37.71875 1 
Q 33.40625 -1.421875 27.6875 -1.421875 
Q 18.265625 -1.421875 13.375 4.4375 
Q 8.5 10.296875 8.5 21.578125 
" id="BitstreamVeraSans-Roman-75"/>
      <path d="M 44.28125 53.078125 
L 44.28125 44.578125 
Q 40.484375 46.53125 36.375 47.5 
Q 32.28125 48.484375 27.875 48.484375 
Q 21.1875 48.484375 17.84375 46.4375 
Q 14.5 44.390625 14.5 40.28125 
Q 14.5 37.15625 16.890625 35.375 
Q 19.28125 33.59375 26.515625 31.984375 
L 29.59375 31.296875 
Q 39.15625 29.25 43.1875 25.515625 
Q 47.21875 21.78125 47.21875 15.09375 
Q 47.21875 7.46875 41.1875 3.015625 
Q 35.15625 -1.421875 24.609375 -1.421875 
Q 20.21875 -1.421875 15.453125 -0.5625 
Q 10.6875 0.296875 5.421875 2 
L 5.421875 11.28125 
Q 10.40625 8.6875 15.234375 7.390625 
Q 20.0625 6.109375 24.8125 6.109375 
Q 31.15625 6.109375 34.5625 8.28125 
Q 37.984375 10.453125 37.984375 14.40625 
Q 37.984375 18.0625 35.515625 20.015625 
Q 33.0625 21.96875 24.703125 23.78125 
L 21.578125 24.515625 
Q 13.234375 26.265625 9.515625 29.90625 
Q 5.8125 33.546875 5.8125 39.890625 
Q 5.8125 47.609375 11.28125 51.796875 
Q 16.75 56 26.8125 56 
Q 31.78125 56 36.171875 55.265625 
Q 40.578125 54.546875 44.28125 53.078125 
" id="BitstreamVeraSans-Roman-73"/>
      <path d="M 19.671875 64.796875 
L 19.671875 37.40625 
L 32.078125 37.40625 
Q 38.96875 37.40625 42.71875 40.96875 
Q 46.484375 44.53125 46.484375 51.125 
Q 46.484375 57.671875 42.71875 61.234375 
Q 38.96875 64.796875 32.078125 64.796875 
z
M 9.8125 72.90625 
L 32.078125 72.90625 
Q 44.34375 72.90625 50.609375 67.359375 
Q 56.890625 61.8125 56.890625 51.125 
Q 56.890625 40.328125 50.609375 34.8125 
Q 44.34375 29.296875 32.078125 29.296875 
L 19.671875 29.296875 
L 19.671875 0 
L 9.8125 0 
z
" id="BitstreamVeraSans-Roman-50"/>
      <path d="M 32.171875 -5.078125 
Q 28.375 -14.84375 24.75 -17.8125 
Q 21.140625 -20.796875 15.09375 -20.796875 
L 7.90625 -20.796875 
L 7.90625 -13.28125 
L 13.1875 -13.28125 
Q 16.890625 -13.28125 18.9375 -11.515625 
Q 21 -9.765625 23.484375 -3.21875 
L 25.09375 0.875 
L 2.984375 54.6875 
L 12.5 54.6875 
L 29.59375 11.921875 
L 46.6875 54.6875 
L 56.203125 54.6875 
z
" id="BitstreamVeraSans-Roman-79"/>
      <path d="M 64.40625 67.28125 
L 64.40625 56.890625 
Q 59.421875 61.53125 53.78125 63.8125 
Q 48.140625 66.109375 41.796875 66.109375 
Q 29.296875 66.109375 22.65625 58.46875 
Q 16.015625 50.828125 16.015625 36.375 
Q 16.015625 21.96875 22.65625 14.328125 
Q 29.296875 6.6875 41.796875 6.6875 
Q 48.140625 6.6875 53.78125 8.984375 
Q 59.421875 11.28125 64.40625 15.921875 
L 64.40625 5.609375 
Q 59.234375 2.09375 53.4375 0.328125 
Q 47.65625 -1.421875 41.21875 -1.421875 
Q 24.65625 -1.421875 15.125 8.703125 
Q 5.609375 18.84375 5.609375 36.375 
Q 5.609375 53.953125 15.125 64.078125 
Q 24.65625 74.21875 41.21875 74.21875 
Q 47.75 74.21875 53.53125 72.484375 
Q 59.328125 70.75 64.40625 67.28125 
" id="BitstreamVeraSans-Roman-43"/>
      <path d="M 56.203125 29.59375 
L 56.203125 25.203125 
L 14.890625 25.203125 
Q 15.484375 15.921875 20.484375 11.0625 
Q 25.484375 6.203125 34.421875 6.203125 
Q 39.59375 6.203125 44.453125 7.46875 
Q 49.3125 8.734375 54.109375 11.28125 
L 54.109375 2.78125 
Q 49.265625 0.734375 44.1875 -0.34375 
Q 39.109375 -1.421875 33.890625 -1.421875 
Q 20.796875 -1.421875 13.15625 6.1875 
Q 5.515625 13.8125 5.515625 26.8125 
Q 5.515625 40.234375 12.765625 48.109375 
Q 20.015625 56 32.328125 56 
Q 43.359375 56 49.78125 48.890625 
Q 56.203125 41.796875 56.203125 29.59375 
M 47.21875 32.234375 
Q 47.125 39.59375 43.09375 43.984375 
Q 39.0625 48.390625 32.421875 48.390625 
Q 24.90625 48.390625 20.390625 44.140625 
Q 15.875 39.890625 15.1875 32.171875 
z
" id="BitstreamVeraSans-Roman-65"/>
     </defs>
     <g transform="translate(27.234375 249.4275)rotate(-90.0)scale(0.12 -0.12)">
      <use xlink:href="#BitstreamVeraSans-Roman-41"/>
      <use x="68.408203125" xlink:href="#BitstreamVeraSans-Roman-78"/>
      <use x="127.587890625" xlink:href="#BitstreamVeraSans-Roman-69"/>
      <use x="155.37109375" xlink:href="#BitstreamVeraSans-Roman-61"/>
      <use x="216.650390625" xlink:href="#BitstreamVeraSans-Roman-6c"/>
      <use x="244.43359375" xlink:href="#BitstreamVeraSans-Roman-20"/>
      <use x="276.220703125" xlink:href="#BitstreamVeraSans-Roman-43"/>
      <use x="346.044921875" xlink:href="#BitstreamVeraSans-Roman-61"/>
      <use x="407.32421875" xlink:href="#BitstreamVeraSans-Roman-75"/>
      <use x="470.703125" xlink:href="#BitstreamVeraSans-Roman-63"/>
      <use x="525.68359375" xlink:href="#BitstreamVeraSans-Roman-68"/>
      <use x="589.0625" xlink:href="#BitstreamVeraSans-Roman-79"/>
      <use x="648.2421875" xlink:href="#BitstreamVeraSans-Roman-20"/>
      <use x="680.029296875" xlink:href="#BitstreamVeraSans-Roman-53"/>
      <use x="743.505859375" xlink:href="#BitstreamVeraSans-Roman-74"/>
      <use x="782.71484375" xlink:href="#BitstreamVeraSans-Roman-72"/>
      <use x="823.796875" xlink:href="#BitstreamVeraSans-Roman-65"/>
      <use x="885.3203125" xlink:href="#BitstreamVeraSans-Roman-73"/>
      <use x="937.419921875" xlink:href="#BitstreamVeraSans-Roman-73"/>
      <use x="989.51953125" xlink:href="#BitstreamVeraSans-Roman-20"/>
      <use x="1021.306640625" xlink:href="#BitstreamVeraSans-Roman-28"/>
      <use x="1060.3203125" xlink:href="#BitstreamVeraSans-Roman-4d"/>
      <use x="1146.599609375" xlink:href="#BitstreamVeraSans-Roman-50"/>
      <use x="1206.83984375" xlink:href="#BitstreamVeraSans-Roman-61"/>
      <use x="1268.119140625" xlink:href="#BitstreamVeraSans-Roman-29"/>
     </g>
    </g>
   </g>
   <g id="text_17">
    <g clip-path="url(#pdd8a6bfdb7)">
     <!-- 0.5MPa -->
     <g transform="translate(290.585339096 281.591644557)scale(0.12 -0.12)">
      <use xlink:href="#BitstreamVeraSans-Roman-30"/>
      <use x="63.623046875" xlink:href="#BitstreamVeraSans-Roman-2e"/>
      <use x="95.41015625" xlink:href="#BitstreamVeraSans-Roman-35"/>
      <use x="159.033203125" xlink:href="#BitstreamVeraSans-Roman-4d"/>
      <use x="245.3125" xlink:href="#BitstreamVeraSans-Roman-50"/>
      <use x="305.552734375" xlink:href="#BitstreamVeraSans-Roman-61"/>
     </g>
    </g>
   </g>
   <g id="text_18">
    <g clip-path="url(#pdd8a6bfdb7)">
     <!-- 1.0MPa -->
     <g transform="translate(290.58503755 239.496822698)scale(0.12 -0.12)">
      <use xlink:href="#BitstreamVeraSans-Roman-31"/>
      <use x="63.623046875" xlink:href="#BitstreamVeraSans-Roman-2e"/>
      <use x="95.41015625" xlink:href="#BitstreamVeraSans-Roman-30"/>
      <use x="159.033203125" xlink:href="#BitstreamVeraSans-Roman-4d"/>
      <use x="245.3125" xlink:href="#BitstreamVeraSans-Roman-50"/>
      <use x="305.552734375" xlink:href="#BitstreamVeraSans-Roman-61"/>
     </g>
    </g>
   </g>
   <g id="text_19">
    <g clip-path="url(#pdd8a6bfdb7)">
     <!-- 2.0MPa -->
     <g transform="translate(290.582029049 162.271237309)scale(0.12 -0.12)">
      <use xlink:href="#BitstreamVeraSans-Roman-32"/>
      <use x="63.623046875" xlink:href="#BitstreamVeraSans-Roman-2e"/>
      <use x="95.41015625" xlink:href="#BitstreamVeraSans-Roman-30"/>
      <use x="159.033203125" xlink:href="#BitstreamVeraSans-Roman-4d"/>
      <use x="245.3125" xlink:href="#BitstreamVeraSans-Roman-50"/>
      <use x="305.552734375" xlink:href="#BitstreamVeraSans-Roman-61"/>
     </g>
    </g>
   </g>
   <g id="text_20">
    <g clip-path="url(#pdd8a6bfdb7)">
     <!-- 4.0MPa -->
     <defs>
      <path d="M 37.796875 64.3125 
L 12.890625 25.390625 
L 37.796875 25.390625 
z
M 35.203125 72.90625 
L 47.609375 72.90625 
L 47.609375 25.390625 
L 58.015625 25.390625 
L 58.015625 17.1875 
L 47.609375 17.1875 
L 47.609375 0 
L 37.796875 0 
L 37.796875 17.1875 
L 4.890625 17.1875 
L 4.890625 26.703125 
z
" id="BitstreamVeraSans-Roman-34"/>
     </defs>
     <g transform="translate(290.584897223 57.0483609281)scale(0.12 -0.12)">
      <use xlink:href="#BitstreamVeraSans-Roman-34"/>
      <use x="63.623046875" xlink:href="#BitstreamVeraSans-Roman-2e"/>
      <use x="95.41015625" xlink:href="#BitstreamVeraSans-Roman-30"/>
      <use x="159.033203125" xlink:href="#BitstreamVeraSans-Roman-4d"/>
      <use x="245.3125" xlink:href="#BitstreamVeraSans-Roman-50"/>
      <use x="305.552734375" xlink:href="#BitstreamVeraSans-Roman-61"/>
     </g>
    </g>
   </g>
   <g id="text_21">
    <g clip-path="url(#pdd8a6bfdb7)">
     <!-- RMSE=1.14MPa -->
     <defs>
      <path d="M 9.8125 72.90625 
L 55.90625 72.90625 
L 55.90625 64.59375 
L 19.671875 64.59375 
L 19.671875 43.015625 
L 54.390625 43.015625 
L 54.390625 34.71875 
L 19.671875 34.71875 
L 19.671875 8.296875 
L 56.78125 8.296875 
L 56.78125 0 
L 9.8125 0 
z
" id="BitstreamVeraSans-Roman-45"/>
      <path d="M 10.59375 45.40625 
L 73.1875 45.40625 
L 73.1875 37.203125 
L 10.59375 37.203125 
z
M 10.59375 25.484375 
L 73.1875 25.484375 
L 73.1875 17.1875 
L 10.59375 17.1875 
z
" id="BitstreamVeraSans-Roman-3d"/>
      <path d="M 44.390625 34.1875 
Q 47.5625 33.109375 50.5625 29.59375 
Q 53.5625 26.078125 56.59375 19.921875 
L 66.609375 0 
L 56 0 
L 46.6875 18.703125 
Q 43.0625 26.03125 39.671875 28.421875 
Q 36.28125 30.8125 30.421875 30.8125 
L 19.671875 30.8125 
L 19.671875 0 
L 9.8125 0 
L 9.8125 72.90625 
L 32.078125 72.90625 
Q 44.578125 72.90625 50.734375 67.671875 
Q 56.890625 62.453125 56.890625 51.90625 
Q 56.890625 45.015625 53.6875 40.46875 
Q 50.484375 35.9375 44.390625 34.1875 
M 19.671875 64.796875 
L 19.671875 38.921875 
L 32.078125 38.921875 
Q 39.203125 38.921875 42.84375 42.21875 
Q 46.484375 45.515625 46.484375 51.90625 
Q 46.484375 58.296875 42.84375 61.546875 
Q 39.203125 64.796875 32.078125 64.796875 
z
" id="BitstreamVeraSans-Roman-52"/>
     </defs>
     <g transform="translate(68.4 73.08)scale(0.12 -0.12)">
      <use xlink:href="#BitstreamVeraSans-Roman-52"/>
      <use x="69.482421875" xlink:href="#BitstreamVeraSans-Roman-4d"/>
      <use x="155.76171875" xlink:href="#BitstreamVeraSans-Roman-53"/>
      <use x="219.23828125" xlink:href="#BitstreamVeraSans-Roman-45"/>
      <use x="282.421875" xlink:href="#BitstreamVeraSans-Roman-3d"/>
      <use x="366.2109375" xlink:href="#BitstreamVeraSans-Roman-31"/>
      <use x="429.833984375" xlink:href="#BitstreamVeraSans-Roman-2e"/>
      <use x="461.62109375" xlink:href="#BitstreamVeraSans-Roman-31"/>
      <use x="525.244140625" xlink:href="#BitstreamVeraSans-Roman-34"/>
      <use x="588.8671875" xlink:href="#BitstreamVeraSans-Roman-4d"/>
      <use x="675.146484375" xlink:href="#BitstreamVeraSans-Roman-50"/>
      <use x="735.38671875" xlink:href="#BitstreamVeraSans-Roman-61"/>
     </g>
    </g>
   </g>
   <g id="legend_1">
    <g id="line2d_37">
     <path d="M 68.4 33.718125 
L 85.2 33.718125 
" style="fill:none;stroke:#000000;stroke-linecap:square;"/>
    </g>
    <g id="line2d_38"/>
    <g id="text_22">
     <!-- DEM Response -->
     <defs>
      <path d="M 18.109375 8.203125 
L 18.109375 -20.796875 
L 9.078125 -20.796875 
L 9.078125 54.6875 
L 18.109375 54.6875 
L 18.109375 46.390625 
Q 20.953125 51.265625 25.265625 53.625 
Q 29.59375 56 35.59375 56 
Q 45.5625 56 51.78125 48.09375 
Q 58.015625 40.1875 58.015625 27.296875 
Q 58.015625 14.40625 51.78125 6.484375 
Q 45.5625 -1.421875 35.59375 -1.421875 
Q 29.59375 -1.421875 25.265625 0.953125 
Q 20.953125 3.328125 18.109375 8.203125 
M 48.6875 27.296875 
Q 48.6875 37.203125 44.609375 42.84375 
Q 40.53125 48.484375 33.40625 48.484375 
Q 26.265625 48.484375 22.1875 42.84375 
Q 18.109375 37.203125 18.109375 27.296875 
Q 18.109375 17.390625 22.1875 11.75 
Q 26.265625 6.109375 33.40625 6.109375 
Q 40.53125 6.109375 44.609375 11.75 
Q 48.6875 17.390625 48.6875 27.296875 
" id="BitstreamVeraSans-Roman-70"/>
      <path d="M 19.671875 64.796875 
L 19.671875 8.109375 
L 31.59375 8.109375 
Q 46.6875 8.109375 53.6875 14.9375 
Q 60.6875 21.78125 60.6875 36.53125 
Q 60.6875 51.171875 53.6875 57.984375 
Q 46.6875 64.796875 31.59375 64.796875 
z
M 9.8125 72.90625 
L 30.078125 72.90625 
Q 51.265625 72.90625 61.171875 64.09375 
Q 71.09375 55.28125 71.09375 36.53125 
Q 71.09375 17.671875 61.125 8.828125 
Q 51.171875 0 30.078125 0 
L 9.8125 0 
z
" id="BitstreamVeraSans-Roman-44"/>
     </defs>
     <g transform="translate(98.4 37.918125)scale(0.12 -0.12)">
      <use xlink:href="#BitstreamVeraSans-Roman-44"/>
      <use x="77.001953125" xlink:href="#BitstreamVeraSans-Roman-45"/>
      <use x="140.185546875" xlink:href="#BitstreamVeraSans-Roman-4d"/>
      <use x="226.46484375" xlink:href="#BitstreamVeraSans-Roman-20"/>
      <use x="258.251953125" xlink:href="#BitstreamVeraSans-Roman-52"/>
      <use x="327.671875" xlink:href="#BitstreamVeraSans-Roman-65"/>
      <use x="389.1953125" xlink:href="#BitstreamVeraSans-Roman-73"/>
      <use x="441.294921875" xlink:href="#BitstreamVeraSans-Roman-70"/>
      <use x="504.771484375" xlink:href="#BitstreamVeraSans-Roman-6f"/>
      <use x="565.953125" xlink:href="#BitstreamVeraSans-Roman-6e"/>
      <use x="629.33203125" xlink:href="#BitstreamVeraSans-Roman-73"/>
      <use x="681.431640625" xlink:href="#BitstreamVeraSans-Roman-65"/>
     </g>
    </g>
    <g id="line2d_39">
     <path d="M 68.4 51.331875 
L 85.2 51.331875 
" style="fill:none;stroke:#000000;stroke-dasharray:6.000000,6.000000;stroke-dashoffset:0.0;"/>
    </g>
    <g id="line2d_40"/>
    <g id="text_23">
     <!-- Fitted FEM Response -->
     <defs>
      <path d="M 45.40625 46.390625 
L 45.40625 75.984375 
L 54.390625 75.984375 
L 54.390625 0 
L 45.40625 0 
L 45.40625 8.203125 
Q 42.578125 3.328125 38.25 0.953125 
Q 33.9375 -1.421875 27.875 -1.421875 
Q 17.96875 -1.421875 11.734375 6.484375 
Q 5.515625 14.40625 5.515625 27.296875 
Q 5.515625 40.1875 11.734375 48.09375 
Q 17.96875 56 27.875 56 
Q 33.9375 56 38.25 53.625 
Q 42.578125 51.265625 45.40625 46.390625 
M 14.796875 27.296875 
Q 14.796875 17.390625 18.875 11.75 
Q 22.953125 6.109375 30.078125 6.109375 
Q 37.203125 6.109375 41.296875 11.75 
Q 45.40625 17.390625 45.40625 27.296875 
Q 45.40625 37.203125 41.296875 42.84375 
Q 37.203125 48.484375 30.078125 48.484375 
Q 22.953125 48.484375 18.875 42.84375 
Q 14.796875 37.203125 14.796875 27.296875 
" id="BitstreamVeraSans-Roman-64"/>
      <path d="M 9.8125 72.90625 
L 51.703125 72.90625 
L 51.703125 64.59375 
L 19.671875 64.59375 
L 19.671875 43.109375 
L 48.578125 43.109375 
L 48.578125 34.8125 
L 19.671875 34.8125 
L 19.671875 0 
L 9.8125 0 
z
" id="BitstreamVeraSans-Roman-46"/>
     </defs>
     <g transform="translate(98.4 55.531875)scale(0.12 -0.12)">
      <use xlink:href="#BitstreamVeraSans-Roman-46"/>
      <use x="57.41015625" xlink:href="#BitstreamVeraSans-Roman-69"/>
      <use x="85.193359375" xlink:href="#BitstreamVeraSans-Roman-74"/>
      <use x="124.40234375" xlink:href="#BitstreamVeraSans-Roman-74"/>
      <use x="163.611328125" xlink:href="#BitstreamVeraSans-Roman-65"/>
      <use x="225.134765625" xlink:href="#BitstreamVeraSans-Roman-64"/>
      <use x="288.611328125" xlink:href="#BitstreamVeraSans-Roman-20"/>
      <use x="320.3984375" xlink:href="#BitstreamVeraSans-Roman-46"/>
      <use x="377.91796875" xlink:href="#BitstreamVeraSans-Roman-45"/>
      <use x="441.1015625" xlink:href="#BitstreamVeraSans-Roman-4d"/>
      <use x="527.380859375" xlink:href="#BitstreamVeraSans-Roman-20"/>
      <use x="559.16796875" xlink:href="#BitstreamVeraSans-Roman-52"/>
      <use x="628.587890625" xlink:href="#BitstreamVeraSans-Roman-65"/>
      <use x="690.111328125" xlink:href="#BitstreamVeraSans-Roman-73"/>
      <use x="742.2109375" xlink:href="#BitstreamVeraSans-Roman-70"/>
      <use x="805.6875" xlink:href="#BitstreamVeraSans-Roman-6f"/>
      <use x="866.869140625" xlink:href="#BitstreamVeraSans-Roman-6e"/>
      <use x="930.248046875" xlink:href="#BitstreamVeraSans-Roman-73"/>
      <use x="982.34765625" xlink:href="#BitstreamVeraSans-Roman-65"/>
     </g>
    </g>
   </g>
  </g>
 </g>
 <defs>
  <clipPath id="pdd8a6bfdb7">
   <rect height="306.0" width="288.0" x="54.0" y="18.0"/>
  </clipPath>
 </defs>
</svg>
